<svg width="22" height="22" viewBox="0 0 22 22" fill="none" xmlns="http://www.w3.org/2000/svg">
<path d="M21.1247 9.04633L12.17 9.0459C11.7746 9.0459 11.4541 9.36559 11.4541 9.76006V12.6137C11.4541 13.0081 11.7746 13.3279 12.17 13.3279H17.2127C16.6605 14.7575 15.6299 15.9547 14.315 16.7154L16.4652 20.4286C19.9144 18.4386 21.9536 14.947 21.9536 11.0383C21.9536 10.4818 21.9125 10.0839 21.8302 9.63597C21.7677 9.29561 21.4715 9.04633 21.1247 9.04633Z" fill="#167EE6"/>
<path d="M10.9759 17.6158C8.50809 17.6158 6.35373 16.2707 5.19667 14.2803L1.47461 16.4204C3.36874 19.6953 6.91706 21.9006 10.9759 21.9006C12.967 21.9006 14.8458 21.3658 16.4643 20.4338V20.4287L14.3141 16.7155C13.3305 17.2846 12.1924 17.6158 10.9759 17.6158Z" fill="#12B347"/>
<path d="M16.4659 20.4332V20.4281L14.3157 16.7148C13.3322 17.2839 12.1941 17.6151 10.9775 17.6151V21.9C12.9687 21.9 14.8475 21.3652 16.4659 20.4332Z" fill="#0F993E"/>
<path d="M4.29525 10.9505C4.29525 9.73702 4.62721 8.60175 5.19753 7.62064L1.47547 5.48047C0.53606 7.08994 0 8.95909 0 10.9505C0 12.9419 0.53606 14.811 1.47547 16.4205L5.19753 14.2803C4.62721 13.2992 4.29525 12.164 4.29525 10.9505Z" fill="#FFD500"/>
<path d="M10.9759 4.28487C12.5851 4.28487 14.0633 4.85531 15.2179 5.80417C15.5027 6.03823 15.9167 6.02134 16.1776 5.76106L18.2045 3.73912C18.5005 3.4438 18.4794 2.96041 18.1632 2.68674C16.2287 1.0126 13.7118 0 10.9759 0C6.91706 0 3.36874 2.20532 1.47461 5.4802L5.19667 7.62037C6.35373 5.62995 8.50809 4.28487 10.9759 4.28487Z" fill="#FF4B26"/>
<path d="M15.2195 5.80417C15.5044 6.03823 15.9184 6.02134 16.1793 5.76106L18.2061 3.73912C18.5021 3.4438 18.481 2.96041 18.1648 2.68674C16.2304 1.01255 13.7134 0 10.9775 0V4.28487C12.5867 4.28487 14.065 4.85531 15.2195 5.80417Z" fill="#D93F21"/>
</svg>
