<svg width="140" height="36" viewBox="0 0 140 36" fill="none" xmlns="http://www.w3.org/2000/svg">
<circle cx="18" cy="18" r="18" fill="black"/>
<path d="M25.9807 14.1213C25.442 14.3607 24.8733 14.5104 24.2747 14.6002C24.8733 14.241 25.3522 13.6723 25.5617 12.9839C24.993 13.3132 24.3645 13.5526 23.6761 13.7022C23.1374 13.1336 22.3592 12.7744 21.5211 12.7744C19.9049 12.7744 18.588 14.0913 18.588 15.7076C18.588 15.947 18.6179 16.1565 18.6778 16.366C16.2534 16.2463 14.0685 15.079 12.602 13.2832C12.3625 13.7322 12.2129 14.2111 12.2129 14.7498C12.2129 15.7674 12.7217 16.6653 13.5298 17.2041C13.0509 17.1741 12.602 17.0544 12.1829 16.8449V16.8748C12.1829 18.3115 13.2006 19.5087 14.5474 19.7781C14.308 19.8379 14.0386 19.8679 13.7692 19.8679C13.5896 19.8679 13.3801 19.8379 13.2006 19.808C13.5896 20.9753 14.6671 21.8433 15.9541 21.8433C14.9365 22.6214 13.6794 23.1003 12.3027 23.1003C12.0632 23.1003 11.8238 23.1003 11.6143 23.0704C12.9312 23.9084 14.4576 24.3873 16.1337 24.3873C21.5511 24.3873 24.5142 19.8978 24.5142 16.0069C24.5142 15.8872 24.5142 15.7375 24.5142 15.6178C25.0828 15.2287 25.5916 14.7199 25.9807 14.1213Z" fill="white"/>
<circle cx="122" cy="18" r="18" fill="black"/>
<path d="M122.001 10.8614C124.326 10.8614 124.602 10.8701 125.52 10.912C126.073 10.9188 126.62 11.0202 127.138 11.2119C127.513 11.3567 127.855 11.5787 128.139 11.8634C128.424 12.1481 128.646 12.4893 128.791 12.865C128.983 13.3831 129.084 13.9302 129.091 14.4825C129.132 15.4012 129.141 15.6766 129.141 18.0021C129.141 20.3276 129.133 20.603 129.091 21.5216C129.084 22.074 128.983 22.6211 128.791 23.1391C128.646 23.5148 128.424 23.856 128.139 24.1407C127.855 24.4255 127.513 24.6474 127.138 24.7923C126.62 24.984 126.073 25.0854 125.52 25.0922C124.602 25.1336 124.327 25.1428 122.001 25.1428C119.675 25.1428 119.399 25.1341 118.481 25.0922C117.929 25.0854 117.382 24.984 116.864 24.7923C116.488 24.6474 116.147 24.4255 115.862 24.1407C115.577 23.856 115.355 23.5148 115.21 23.1391C115.019 22.6211 114.917 22.074 114.911 21.5216C114.869 20.603 114.86 20.3276 114.86 18.0021C114.86 15.6766 114.869 15.4012 114.911 14.4825C114.917 13.9302 115.019 13.3831 115.21 12.865C115.355 12.4893 115.577 12.1481 115.862 11.8634C116.147 11.5787 116.488 11.3567 116.864 11.2119C117.382 11.0202 117.929 10.9188 118.481 10.912C119.4 10.8705 119.675 10.8614 122.001 10.8614ZM122.001 9.29199C119.637 9.29199 119.339 9.30195 118.41 9.34425C117.687 9.35863 116.972 9.4955 116.295 9.74904C115.714 9.96789 115.188 10.3108 114.753 10.754C114.309 11.1888 113.966 11.7152 113.747 12.2964C113.494 12.9735 113.357 13.6887 113.342 14.4116C113.301 15.3398 113.291 15.6376 113.291 18.0017C113.291 20.3657 113.301 20.6635 113.343 21.5925C113.358 22.3154 113.495 23.0306 113.748 23.7078C113.967 24.2889 114.31 24.8153 114.753 25.2502C115.188 25.6934 115.714 26.0364 116.295 26.2551C116.973 26.5087 117.688 26.6455 118.411 26.6599C119.34 26.7014 119.636 26.7122 122.002 26.7122C124.367 26.7122 124.663 26.7022 125.592 26.6599C126.315 26.6455 127.03 26.5087 127.708 26.2551C128.286 26.0309 128.811 25.6885 129.25 25.2497C129.688 24.8109 130.03 24.2855 130.254 23.7069C130.508 23.0298 130.645 22.3146 130.659 21.5917C130.7 20.6635 130.71 20.3657 130.71 18.0017C130.71 15.6376 130.7 15.3398 130.658 14.4108C130.644 13.6879 130.507 12.9727 130.253 12.2956C130.035 11.7144 129.692 11.188 129.248 10.7531C128.813 10.3099 128.287 9.96695 127.706 9.74821C127.029 9.49467 126.314 9.3578 125.591 9.34342C124.663 9.30195 124.365 9.29199 122.001 9.29199Z" fill="white"/>
<path d="M122.003 13.5303C121.118 13.5303 120.254 13.7926 119.518 14.284C118.783 14.7755 118.209 15.474 117.871 16.2913C117.532 17.1086 117.444 18.0079 117.616 18.8755C117.789 19.7431 118.215 20.54 118.84 21.1655C119.466 21.791 120.263 22.217 121.13 22.3896C121.998 22.5622 122.897 22.4736 123.715 22.1351C124.532 21.7965 125.23 21.2233 125.722 20.4878C126.213 19.7522 126.476 18.8875 126.476 18.0029C126.476 16.8167 126.004 15.6791 125.166 14.8403C124.327 14.0015 123.189 13.5303 122.003 13.5303ZM122.003 20.9061C121.429 20.9061 120.867 20.7359 120.39 20.4168C119.913 20.0978 119.54 19.6444 119.321 19.1139C119.101 18.5834 119.043 17.9997 119.155 17.4365C119.267 16.8733 119.544 16.356 119.95 15.95C120.356 15.544 120.873 15.2675 121.437 15.1555C122 15.0434 122.583 15.1009 123.114 15.3207C123.644 15.5404 124.098 15.9125 124.417 16.39C124.736 16.8674 124.906 17.4287 124.906 18.0029C124.906 18.7729 124.6 19.5113 124.056 20.0558C123.511 20.6003 122.773 20.9061 122.003 20.9061Z" fill="white"/>
<path d="M126.651 14.3979C127.228 14.3979 127.696 13.93 127.696 13.3528C127.696 12.7756 127.228 12.3076 126.651 12.3076C126.073 12.3076 125.605 12.7756 125.605 13.3528C125.605 13.93 126.073 14.3979 126.651 14.3979Z" fill="white"/>
<circle cx="72.2861" cy="18" r="18" fill="black"/>
<path d="M70.6255 26.1046V18.9643H68.2227V16.1816H70.6255V14.1295C70.6255 11.748 72.0801 10.4512 74.2045 10.4512C75.2222 10.4512 76.0968 10.5269 76.3517 10.5608V13.0496L74.8782 13.0503C73.7228 13.0503 73.4991 13.5993 73.4991 14.405V16.1816H76.2547L75.8959 18.9643H73.4991V26.1046H70.6255Z" fill="white"/>
</svg>
